<?xml version="1.0" encoding="UTF-8"?>
<svg id="Layer_2" data-name="Layer 2" xmlns="http://www.w3.org/2000/svg" viewBox="0 0 228.38 48.24">
  <defs>
    <style>
      .cls-1 {
        fill: #fff;
      }
    </style>
  </defs>
  <g id="Layer_2-2" data-name="Layer 2">
    <g>
      <path class="cls-1" d="M0,0v12.37h17.88c.82-.02,5.21-.02,8.8,3.45,3.46,3.35,3.7,7.55,3.73,8.41h12.37c.02-1.64-.06-10.67-7.25-17.65C30,1.22,23.52.23,21.39,0H0Z"/>
      <polygon class="cls-1" points="0 24.23 30.41 24.23 42.78 48.24 30.58 48.24 24.57 36.23 12.2 36.23 12.2 48.24 0 48.24 0 24.23"/>
    </g>
    <g>
      <path class="cls-1" d="M56.78,41.04V6.96h14.26c2.46,0,4.59.42,6.38,1.25,1.79.83,3.18,2.02,4.18,3.55.99,1.54,1.49,3.34,1.49,5.42,0,1.57-.34,2.96-1.01,4.18-.67,1.22-1.58,2.19-2.71,2.93-1.14.74-2.39,1.18-3.77,1.34l-.24-.48c2.21,0,3.91.5,5.11,1.49,1.2.99,1.88,2.51,2.04,4.56l.86,9.84h-6.34l-.72-8.93c-.1-1.34-.53-2.34-1.3-2.98s-2.05-.96-3.84-.96h-8.16v12.86h-6.24ZM63.02,22.7h7.63c1.89,0,3.36-.45,4.42-1.34,1.06-.9,1.58-2.16,1.58-3.79s-.54-2.94-1.61-3.84c-1.07-.9-2.63-1.34-4.68-1.34h-7.34v10.32Z"/>
      <path class="cls-1" d="M97.53,41.62c-2.56,0-4.78-.55-6.67-1.66-1.89-1.1-3.34-2.66-4.37-4.68-1.02-2.02-1.54-4.37-1.54-7.06s.51-5.03,1.54-7.03c1.02-2,2.47-3.56,4.34-4.68s4.06-1.68,6.55-1.68,4.57.54,6.41,1.63c1.84,1.09,3.26,2.66,4.25,4.7.99,2.05,1.49,4.51,1.49,7.39v1.39h-18.19c.13,2.24.74,3.93,1.85,5.06,1.1,1.14,2.57,1.7,4.39,1.7,1.38,0,2.52-.31,3.43-.94s1.54-1.5,1.9-2.62l6.29.38c-.7,2.5-2.09,4.46-4.15,5.9-2.06,1.44-4.57,2.16-7.51,2.16ZM91.34,25.82h11.86c-.13-2.08-.72-3.62-1.78-4.63-1.06-1.01-2.4-1.51-4.03-1.51s-2.98.53-4.05,1.58c-1.07,1.06-1.74,2.58-1.99,4.56Z"/>
      <path class="cls-1" d="M118.56,41.04c-1.86,0-3.34-.48-4.46-1.44s-1.68-2.5-1.68-4.61V6.96h6.14v27.41c0,.64.17,1.12.5,1.44.34.32.81.48,1.42.48h1.87v4.75h-3.79Z"/>
      <path class="cls-1" d="M131.85,41.62c-2.69,0-4.85-.62-6.48-1.85-1.63-1.23-2.45-2.95-2.45-5.16s.69-3.94,2.06-5.18c1.38-1.25,3.47-2.14,6.29-2.69l8.5-1.68c0-1.82-.42-3.19-1.25-4.1s-2.06-1.37-3.7-1.37c-1.47,0-2.63.34-3.48,1.03-.85.69-1.43,1.67-1.75,2.95l-6.24-.29c.51-2.72,1.76-4.81,3.74-6.26,1.98-1.46,4.56-2.18,7.73-2.18,3.65,0,6.41.92,8.28,2.76,1.87,1.84,2.81,4.47,2.81,7.9v9.31c0,.67.12,1.14.36,1.39.24.26.6.38,1.08.38h.82v4.46c-.19.06-.5.11-.94.14-.43.03-.87.05-1.32.05-1.06,0-2-.17-2.83-.5-.83-.34-1.47-.93-1.92-1.78-.45-.85-.67-2.01-.67-3.48l.53.38c-.26,1.12-.81,2.12-1.66,3-.85.88-1.91,1.56-3.19,2.04-1.28.48-2.72.72-4.32.72ZM133.1,37.15c1.38,0,2.56-.27,3.55-.82.99-.54,1.76-1.3,2.3-2.26.54-.96.82-2.1.82-3.41v-1.44l-6.62,1.34c-1.38.29-2.36.71-2.95,1.27-.59.56-.89,1.29-.89,2.18,0,.99.33,1.76.98,2.3.66.54,1.59.82,2.81.82Z"/>
      <path class="cls-1" d="M150.48,48.24v-4.75h3.26c.83,0,1.45-.13,1.85-.38.4-.26.71-.69.94-1.3l.72-1.78h-1.78l-9.17-24.62h6.38l6.43,18.86,6.14-18.86h6.38l-10.03,28.32c-.58,1.6-1.38,2.75-2.42,3.46-1.04.7-2.49,1.06-4.34,1.06h-4.37Z"/>
      <path class="cls-1" d="M174.33,41.04V6.96h6.24v15.55l13.34-15.55h7.39l-12.77,14.98,13.58,19.1h-7.15l-10.56-14.83-3.84,4.37v10.46h-6.24Z"/>
      <path class="cls-1" d="M203.37,12v-5.47h6.38v5.47h-6.38ZM203.47,41.04V15.41h6.14v25.63h-6.14Z"/>
      <path class="cls-1" d="M211.44,20.16v-4.75h16.94v4.75h-16.94ZM222.91,41.04c-2.56,0-4.44-.59-5.64-1.78-1.2-1.18-1.8-3.04-1.8-5.57V9.41h6.14v23.71c0,1.18.26,2.01.77,2.47.51.46,1.31.7,2.4.7h3.6v4.75h-5.47Z"/>
    </g>
  </g>
</svg>